<?xml version="1.0" encoding="UTF-8"?>
<!DOCTYPE svg  PUBLIC '-//W3C//DTD SVG 1.1//EN'  'http://www.w3.org/Graphics/SVG/1.1/DTD/svg11.dtd'>
<svg enable-background="new 0 0 140 140" version="1.1" viewBox="0 0 140 140" xml:space="preserve" xmlns="http://www.w3.org/2000/svg" xmlns:xlink="http://www.w3.org/1999/xlink"><defs><filter id="t" x="42.929" y="42.929" width="97.071" height="97.071" filterUnits="userSpaceOnUse"><feColorMatrix values="1 0 0 0 0  0 1 0 0 0  0 0 1 0 0  0 0 0 1 0"/></filter></defs><mask id="i" x="42.9289551" y="42.928894" width="97.0710449" height="97.071106" maskUnits="userSpaceOnUse"><g filter="url(#t)"><radialGradient id="h" cx="70" cy="70" r="106.56" gradientTransform="matrix(.70711 .70711 -.27214 .27214 39.552 1.4528)" gradientUnits="userSpaceOnUse"><stop stop-color="#fff" offset=".3"/><stop stop-color="#fff" stop-opacity="0" offset=".85"/></radialGradient><rect width="140" height="140" fill="url(#h)"/></g></mask><linearGradient id="g" x1="70" x2="140" y1="70" y2="140" gradientUnits="userSpaceOnUse"><stop stop-opacity=".4" offset="0"/><stop stop-opacity="0" offset=".8"/></linearGradient><polygon points="140 85.858 97.071 42.929 42.929 97.071 85.858 140 140 140" fill="url(#g)" mask="url(#i)"/><defs><filter id="s" x="42.929" y="42.929" width="97.071" height="97.071" filterUnits="userSpaceOnUse"><feColorMatrix values="1 0 0 0 0  0 1 0 0 0  0 0 1 0 0  0 0 0 1 0"/></filter></defs><mask id="f" x="42.9289551" y="42.928894" width="97.0710449" height="97.071106" maskUnits="userSpaceOnUse"><g filter="url(#s)"><radialGradient id="e" cx="70" cy="70" r="79.557" gradientTransform="matrix(.70711 .70711 -.38891 .38891 47.726 -6.7211)" gradientUnits="userSpaceOnUse"><stop stop-color="#fff" offset=".3"/><stop stop-color="#fff" stop-opacity="0" offset=".85"/></radialGradient><rect width="140" height="140" fill="url(#e)"/></g></mask><linearGradient id="d" x1="70" x2="140" y1="70" y2="140" gradientUnits="userSpaceOnUse"><stop stop-color="#24292E" stop-opacity=".6" offset="0"/><stop stop-color="#24292E" stop-opacity="0" offset=".5"/></linearGradient><polygon points="140 85.858 97.071 42.929 42.929 97.071 85.858 140 140 140" fill="url(#d)" mask="url(#f)"/><path d="m90 100h-40c-5.5228 0-10-4.4772-10-10v-40c0-5.5228 4.4772-10 10-10h40c5.5228 0 10 4.4772 10 10v40c0 5.5228-4.4772 10-10 10z" fill="#24292E"/><defs><path id="b" d="m90 41c4.9626 0 9 4.0374 9 9v40c0 4.9626-4.0374 9-9 9h-40c-4.9626 0-9-4.0374-9-9v-40c0-4.9626 4.0374-9 9-9h40m0-1h-40c-5.5228 0-10 4.4772-10 10v40c0 5.5228 4.4772 10 10 10h40c5.5228 0 10-4.4772 10-10v-40c0-5.5228-4.4772-10-10-10z"/></defs><clipPath id="c"><use overflow="visible" xlink:href="#b"/></clipPath><linearGradient id="a" x1="20" x2="120" y1="20" y2="120" gradientUnits="userSpaceOnUse"><stop stop-color="#fff" stop-opacity=".8" offset="0"/><stop stop-color="#fff" stop-opacity="0" offset=".6"/></linearGradient><rect x="20" y="20" width="100" height="100" clip-path="url(#c)" fill="url(#a)"/><defs><path id="r" d="m90 41c4.9626 0 9 4.0374 9 9v40c0 4.9626-4.0374 9-9 9h-40c-4.9626 0-9-4.0374-9-9v-40c0-4.9626 4.0374-9 9-9h40m0-1h-40c-5.5228 0-10 4.4772-10 10v40c0 5.5228 4.4772 10 10 10h40c5.5228 0 10-4.4772 10-10v-40c0-5.5228-4.4772-10-10-10z"/></defs><clipPath id="o"><use overflow="visible" xlink:href="#r"/></clipPath><linearGradient id="n" x1="20" x2="120" y1="20" y2="120" gradientUnits="userSpaceOnUse"><stop stop-opacity="0" offset=".4"/><stop stop-opacity=".2" offset="1"/></linearGradient><rect x="20" y="20" width="100" height="100" clip-path="url(#o)" fill="url(#n)"/><defs><path id="q" d="m50 99c-4.9624 0-9-4.0376-9-9v-40c0-4.9624 4.0376-9 9-9h40c4.9624 0 9 4.0376 9 9v40c0 4.9624-4.0376 9-9 9h-40z"/></defs><clipPath id="m"><use overflow="visible" xlink:href="#q"/></clipPath><radialGradient id="l" cx="45" cy="45" r="45" gradientUnits="userSpaceOnUse"><stop stop-color="#fff" stop-opacity=".2" offset="0"/><stop stop-color="#fff" stop-opacity="0" offset="1"/></radialGradient><circle cx="45" cy="45" r="45" clip-path="url(#m)" fill="url(#l)"/><defs><path id="p" d="m90 99.15h-40c-5.0454 0-9.1499-4.1045-9.1499-9.1499v-40c0-5.0454 4.1045-9.1499 9.1499-9.1499h40c5.0454 0 9.1499 4.1045 9.1499 9.1499v40c0 5.0454-4.1045 9.1499-9.1499 9.1499zm-40-58c-4.8799 0-8.8501 3.9702-8.8501 8.8501v40c0 4.8799 3.9702 8.8501 8.8501 8.8501h40c4.8799 0 8.8501-3.9702 8.8501-8.8501v-40c0-4.8799-3.9702-8.8501-8.8501-8.8501h-40z"/></defs><clipPath id="k"><use overflow="visible" xlink:href="#p"/></clipPath><linearGradient id="j" x1="20" x2="120" y1="20" y2="120" gradientUnits="userSpaceOnUse"><stop stop-color="#fff" stop-opacity=".8" offset=".2"/><stop stop-color="#fff" stop-opacity="0" offset=".7"/></linearGradient><rect x="20" y="20" width="100" height="100" clip-path="url(#k)" fill="url(#j)"/><path d="m84.144 56.35l-25.477-0.93294-7 16.167 4.1811 13.043 15.373 15.373h18.779c5.5228 0 10-4.4772 10-10v-17.794l-15.856-15.856z" opacity=".12"/><path d="m70 50.493c-11.05 0-20 8.95-20 20 0 8.85 5.725 16.325 13.675 18.975 1 0.175 1.375-0.425 1.375-0.95 0-0.475-0.025002-2.05-0.025002-3.725-5.025 0.925-6.325-1.225-6.725-2.35-0.225-0.575-1.2-2.35-2.05-2.825-0.7-0.37499-1.7-1.3-0.025002-1.325 1.575-0.025002 2.7 1.45 3.075 2.05 1.8 3.025 4.675 2.175 5.825 1.65 0.175-1.3 0.7-2.175 1.275-2.675-4.45-0.5-9.1-2.225-9.1-9.875 0-2.175 0.775-3.975 2.05-5.375-0.2-0.5-0.9-2.55 0.2-5.3 0 0 1.675-0.525 5.5 2.05 1.6-0.45 3.3-0.675 5-0.675 1.7 0 3.4 0.225 5 0.675 3.825-2.6 5.5-2.05 5.5-2.05 1.1 2.75 0.4 4.8 0.2 5.3 1.275 1.4 2.05 3.175 2.05 5.375 0 7.675-4.675 9.375-9.125 9.875 0.72501 0.625 1.35 1.825 1.35 3.7 0 2.675-0.025002 4.825-0.025002 5.5 0 0.52499 0.375 1.15 1.375 0.95 8.1411-2.7484 13.623-10.382 13.625-18.975 0-11.05-8.95-20-20-20z" fill="#fff"/><path d="m75 88.518c0 0.52499 0.375 1.15 1.375 0.95 6.3764-2.1526 11.121-7.3024 12.88-13.562 0 0-2.2774 5.0059-6.7549 8.719-3.8438 3.1875-7.5 3.8934-7.5 3.8934z" fill="#24292E" opacity=".4"/></svg>
