<?xml version="1.0" encoding="UTF-8"?>
<!DOCTYPE svg  PUBLIC '-//W3C//DTD SVG 1.1//EN'  'http://www.w3.org/Graphics/SVG/1.1/DTD/svg11.dtd'>
<svg enable-background="new 0 0 140 140" version="1.1" viewBox="0 0 140 140" xml:space="preserve" xmlns="http://www.w3.org/2000/svg" xmlns:xlink="http://www.w3.org/1999/xlink"><defs><filter id="t" x="42.929" y="42.929" width="97.071" height="97.071" filterUnits="userSpaceOnUse"><feColorMatrix values="1 0 0 0 0  0 1 0 0 0  0 0 1 0 0  0 0 0 1 0"/></filter></defs><mask id="l" x="42.9289551" y="42.928894" width="97.0710449" height="97.071106" maskUnits="userSpaceOnUse"><g filter="url(#t)"><radialGradient id="k" cx="70" cy="70" r="106.56" gradientTransform="matrix(.70711 .70711 -.27214 .27214 39.552 1.4528)" gradientUnits="userSpaceOnUse"><stop stop-color="#fff" offset=".3"/><stop stop-color="#fff" stop-opacity="0" offset=".85"/></radialGradient><rect width="140" height="140" fill="url(#k)"/></g></mask><linearGradient id="j" x1="70" x2="140" y1="70" y2="140" gradientUnits="userSpaceOnUse"><stop stop-opacity=".4" offset="0"/><stop stop-opacity="0" offset=".8"/></linearGradient><polygon points="140 85.858 97.071 42.929 42.929 97.071 85.858 140 140 140" fill="url(#j)" mask="url(#l)"/><defs><filter id="s" x="42.929" y="42.929" width="97.071" height="97.071" filterUnits="userSpaceOnUse"><feColorMatrix values="1 0 0 0 0  0 1 0 0 0  0 0 1 0 0  0 0 0 1 0"/></filter></defs><mask id="i" x="42.9289551" y="42.928894" width="97.0710449" height="97.071106" maskUnits="userSpaceOnUse"><g filter="url(#s)"><radialGradient id="h" cx="70" cy="70" r="79.557" gradientTransform="matrix(.70711 .70711 -.38891 .38891 47.726 -6.7211)" gradientUnits="userSpaceOnUse"><stop stop-color="#fff" offset=".3"/><stop stop-color="#fff" stop-opacity="0" offset=".85"/></radialGradient><rect width="140" height="140" fill="url(#h)"/></g></mask><linearGradient id="d" x1="70" x2="140" y1="70" y2="140" gradientUnits="userSpaceOnUse"><stop stop-color="#F48024" stop-opacity=".6" offset="0"/><stop stop-color="#F48024" stop-opacity="0" offset=".5"/></linearGradient><polygon points="140 85.858 97.071 42.929 42.929 97.071 85.858 140 140 140" fill="url(#d)" mask="url(#i)"/><path d="m90 100h-40c-5.5228 0-10-4.4772-10-10v-40c0-5.5228 4.4772-10 10-10h40c5.5228 0 10 4.4772 10 10v40c0 5.5228-4.4772 10-10 10z" fill="#F48024"/><defs><path id="g" d="m90 41c4.9626 0 9 4.0374 9 9v40c0 4.9626-4.0374 9-9 9h-40c-4.9626 0-9-4.0374-9-9v-40c0-4.9626 4.0374-9 9-9h40m0-1h-40c-5.5228 0-10 4.4772-10 10v40c0 5.5228 4.4772 10 10 10h40c5.5228 0 10-4.4772 10-10v-40c0-5.5228-4.4772-10-10-10z"/></defs><clipPath id="b"><use overflow="visible" xlink:href="#g"/></clipPath><linearGradient id="a" x1="20" x2="120" y1="20" y2="120" gradientUnits="userSpaceOnUse"><stop stop-color="#fff" stop-opacity=".8" offset="0"/><stop stop-color="#fff" stop-opacity="0" offset=".6"/></linearGradient><rect x="20" y="20" width="100" height="100" clip-path="url(#b)" fill="url(#a)"/><defs><path id="f" d="m90 41c4.9626 0 9 4.0374 9 9v40c0 4.9626-4.0374 9-9 9h-40c-4.9626 0-9-4.0374-9-9v-40c0-4.9626 4.0374-9 9-9h40m0-1h-40c-5.5228 0-10 4.4772-10 10v40c0 5.5228 4.4772 10 10 10h40c5.5228 0 10-4.4772 10-10v-40c0-5.5228-4.4772-10-10-10z"/></defs><clipPath id="r"><use overflow="visible" xlink:href="#f"/></clipPath><linearGradient id="q" x1="20" x2="120" y1="20" y2="120" gradientUnits="userSpaceOnUse"><stop stop-opacity="0" offset=".4"/><stop stop-opacity=".2" offset="1"/></linearGradient><rect x="20" y="20" width="100" height="100" clip-path="url(#r)" fill="url(#q)"/><defs><path id="e" d="m50 99c-4.9624 0-9-4.0376-9-9v-40c0-4.9624 4.0376-9 9-9h40c4.9624 0 9 4.0376 9 9v40c0 4.9624-4.0376 9-9 9h-40z"/></defs><clipPath id="p"><use overflow="visible" xlink:href="#e"/></clipPath><radialGradient id="o" cx="45" cy="45" r="45" gradientUnits="userSpaceOnUse"><stop stop-color="#fff" stop-opacity=".2" offset="0"/><stop stop-color="#fff" stop-opacity="0" offset="1"/></radialGradient><circle cx="45" cy="45" r="45" clip-path="url(#p)" fill="url(#o)"/><defs><path id="c" d="m90 99.15h-40c-5.0454 0-9.1499-4.1045-9.1499-9.1499v-40c0-5.0454 4.1045-9.1499 9.1499-9.1499h40c5.0454 0 9.1499 4.1045 9.1499 9.1499v40c0 5.0454-4.1045 9.1499-9.1499 9.1499zm-40-58c-4.8799 0-8.8501 3.9702-8.8501 8.8501v40c0 4.8799 3.9702 8.8501 8.8501 8.8501h40c4.8799 0 8.8501-3.9702 8.8501-8.8501v-40c0-4.8799-3.9702-8.8501-8.8501-8.8501h-40z"/></defs><clipPath id="n"><use overflow="visible" xlink:href="#c"/></clipPath><linearGradient id="m" x1="20" x2="120" y1="20" y2="120" gradientUnits="userSpaceOnUse"><stop stop-color="#fff" stop-opacity=".8" offset=".2"/><stop stop-color="#fff" stop-opacity="0" offset=".7"/></linearGradient><rect x="20" y="20" width="100" height="100" clip-path="url(#n)" fill="url(#m)"/><path d="m100 90v-6.2162l-16.595-16.595-16-8.7567 12.182 12.182-16.723-4.1825 9.0264 9.0264-11.297-0.59393 5.7418 5.7417h-4.3244l-4.6606-4.6606-4.3243 14.054 10 10h26.973c5.5228 0 10-4.4772 10-10z" opacity=".12"/><polygon points="77.778 53.737 82.728 60.1 84.054 66.541 100 82.486 100 73.55 76.27 50" opacity=".12"/><g fill="#fff"><polygon points="81.135 85.676 57.351 85.676 57.351 75.946 53.027 75.946 53.027 90 85.459 90 85.459 75.946 81.135 75.946"/><rect transform="matrix(.90618 .42288 -.42288 .90618 35.737 -23.898)" x="62.782" y="66.805" width="17.895" height="3.579"/><polygon points="86.973 64.378 76.27 50 73.351 52.162 84.054 66.541"/><polygon points="83.405 67.189 69.676 55.73 67.405 58.432 81.135 69.892"/><rect x="60.595" y="79.189" width="17.297" height="3.2433"/><polygon points="78.739 74.908 61.33 71.284 60.595 74.865 77.989 78.097"/></g><path d="m85.459 88.458v1.5417h-32.432v-1.0002s9.2614 0.13261 17.765 0.041832c11.708-0.125 14.668-0.58333 14.668-0.58333z" fill="#F48024" opacity=".4"/></svg>
