<?xml version="1.0" encoding="UTF-8"?>
<!DOCTYPE svg  PUBLIC '-//W3C//DTD SVG 1.1//EN'  'http://www.w3.org/Graphics/SVG/1.1/DTD/svg11.dtd'>
<svg enable-background="new 0 0 140 140" version="1.1" viewBox="0 0 140 140" xml:space="preserve" xmlns="http://www.w3.org/2000/svg" xmlns:xlink="http://www.w3.org/1999/xlink"><defs><filter id="t" x="42.929" y="42.929" width="97.071" height="97.071" filterUnits="userSpaceOnUse"><feColorMatrix values="1 0 0 0 0  0 1 0 0 0  0 0 1 0 0  0 0 0 1 0"/></filter></defs><mask id="h" x="42.9289551" y="42.928894" width="97.0710449" height="97.071106" maskUnits="userSpaceOnUse"><g filter="url(#t)"><radialGradient id="g" cx="70" cy="70" r="106.56" gradientTransform="matrix(.70711 .70711 -.27214 .27214 39.552 1.4528)" gradientUnits="userSpaceOnUse"><stop stop-color="#fff" offset=".3"/><stop stop-color="#fff" stop-opacity="0" offset=".85"/></radialGradient><rect width="140" height="140" fill="url(#g)"/></g></mask><linearGradient id="f" x1="70" x2="140" y1="70" y2="140" gradientUnits="userSpaceOnUse"><stop stop-opacity=".4" offset="0"/><stop stop-opacity="0" offset=".8"/></linearGradient><polygon points="140 85.858 97.071 42.929 42.929 97.071 85.858 140 140 140" fill="url(#f)" mask="url(#h)"/><defs><filter id="s" x="42.929" y="42.929" width="97.071" height="97.071" filterUnits="userSpaceOnUse"><feColorMatrix values="1 0 0 0 0  0 1 0 0 0  0 0 1 0 0  0 0 0 1 0"/></filter></defs><mask id="e" x="42.9289551" y="42.928894" width="97.0710449" height="97.071106" maskUnits="userSpaceOnUse"><g filter="url(#s)"><radialGradient id="d" cx="70" cy="70" r="79.557" gradientTransform="matrix(.70711 .70711 -.38891 .38891 47.726 -6.7211)" gradientUnits="userSpaceOnUse"><stop stop-color="#fff" offset=".3"/><stop stop-color="#fff" stop-opacity="0" offset=".85"/></radialGradient><rect width="140" height="140" fill="url(#d)"/></g></mask><linearGradient id="c" x1="70" x2="140" y1="70" y2="140" gradientUnits="userSpaceOnUse"><stop stop-color="#006595" stop-opacity=".6" offset="0"/><stop stop-color="#006595" stop-opacity="0" offset=".5"/></linearGradient><polygon points="140 85.858 97.071 42.929 42.929 97.071 85.858 140 140 140" fill="url(#c)" mask="url(#e)"/><path d="m90 100h-40c-5.5228 0-10-4.4772-10-10v-40c0-5.5228 4.4772-10 10-10h40c5.5228 0 10 4.4772 10 10v40c0 5.5228-4.4772 10-10 10z" fill="#006595"/><defs><path id="p" d="m90 41c4.9626 0 9 4.0374 9 9v40c0 4.9626-4.0374 9-9 9h-40c-4.9626 0-9-4.0374-9-9v-40c0-4.9626 4.0374-9 9-9h40m0-1h-40c-5.5228 0-10 4.4772-10 10v40c0 5.5228 4.4772 10 10 10h40c5.5228 0 10-4.4772 10-10v-40c0-5.5228-4.4772-10-10-10z"/></defs><clipPath id="b"><use overflow="visible" xlink:href="#p"/></clipPath><linearGradient id="a" x1="20" x2="120" y1="20" y2="120" gradientUnits="userSpaceOnUse"><stop stop-color="#fff" stop-opacity=".8" offset="0"/><stop stop-color="#fff" stop-opacity="0" offset=".6"/></linearGradient><rect x="20" y="20" width="100" height="100" clip-path="url(#b)" fill="url(#a)"/><defs><path id="o" d="m90 41c4.9626 0 9 4.0374 9 9v40c0 4.9626-4.0374 9-9 9h-40c-4.9626 0-9-4.0374-9-9v-40c0-4.9626 4.0374-9 9-9h40m0-1h-40c-5.5228 0-10 4.4772-10 10v40c0 5.5228 4.4772 10 10 10h40c5.5228 0 10-4.4772 10-10v-40c0-5.5228-4.4772-10-10-10z"/></defs><clipPath id="r"><use overflow="visible" xlink:href="#o"/></clipPath><linearGradient id="q" x1="20" x2="120" y1="20" y2="120" gradientUnits="userSpaceOnUse"><stop stop-opacity="0" offset=".4"/><stop stop-opacity=".2" offset="1"/></linearGradient><rect x="20" y="20" width="100" height="100" clip-path="url(#r)" fill="url(#q)"/><defs><path id="n" d="m50 99c-4.9624 0-9-4.0376-9-9v-40c0-4.9624 4.0376-9 9-9h40c4.9624 0 9 4.0376 9 9v40c0 4.9624-4.0376 9-9 9h-40z"/></defs><clipPath id="l"><use overflow="visible" xlink:href="#n"/></clipPath><radialGradient id="k" cx="45" cy="45" r="45" gradientUnits="userSpaceOnUse"><stop stop-color="#fff" stop-opacity=".2" offset="0"/><stop stop-color="#fff" stop-opacity="0" offset="1"/></radialGradient><circle cx="45" cy="45" r="45" clip-path="url(#l)" fill="url(#k)"/><defs><path id="m" d="m90 99.15h-40c-5.0454 0-9.1499-4.1045-9.1499-9.1499v-40c0-5.0454 4.1045-9.1499 9.1499-9.1499h40c5.0454 0 9.1499 4.1045 9.1499 9.1499v40c0 5.0454-4.1045 9.1499-9.1499 9.1499zm-40-58c-4.8799 0-8.8501 3.9702-8.8501 8.8501v40c0 4.8799 3.9702 8.8501 8.8501 8.8501h40c4.8799 0 8.8501-3.9702 8.8501-8.8501v-40c0-4.8799-3.9702-8.8501-8.8501-8.8501h-40z"/></defs><clipPath id="j"><use overflow="visible" xlink:href="#m"/></clipPath><linearGradient id="i" x1="20" x2="120" y1="20" y2="120" gradientUnits="userSpaceOnUse"><stop stop-color="#fff" stop-opacity=".8" offset=".2"/><stop stop-color="#fff" stop-opacity="0" offset=".7"/></linearGradient><rect x="20" y="20" width="100" height="100" clip-path="url(#j)" fill="url(#i)"/><path d="m89.132 50.844c-0.53577-0.52191-1.2755-0.84473-2.0916-0.84473h-34.09c-0.81396 0-1.5515 0.32281-2.0857 0.84473-0.53406 0.52191-0.86475 1.243-0.86475 2.0394v34.231c0 0.79645 0.33069 1.5181 0.86475 2.0405l10.845 10.845h28.29c5.5228 0 10-4.4772 10-10v-28.288l-10.868-10.868z" opacity=".12"/><path d="m87.041 49.999h-34.09c-1.6277 0-2.9504 1.2913-2.9504 2.8842v34.231c0 1.5929 1.3227 2.8864 2.9504 2.8864h34.09c1.632-1e-7 2.9591-1.2935 2.9591-2.8864v-34.231c0-1.5929-1.327-2.8842-2.9591-2.8842zm-25.175 34.085h-5.9377v-19.089h5.9377v19.089zm-2.9677-21.697c-1.9054 0-3.442-1.5414-3.442-3.4408 0-1.8989 1.5366-3.4403 3.442-3.4403 1.8978 0 3.4386 1.5414 3.4386 3.4403 0 1.8995-1.5408 3.4408-3.4386 3.4408zm25.188 21.697h-5.9311v-9.283c0-2.2136-0.039108-5.0615-3.0839-5.0615-3.0872 0-3.5581 2.4127-3.5581 4.903v9.4415h-5.9257v-19.089h5.687v2.6096h0.081329c0.79103-1.5007 2.728-3.0833 5.6143-3.0833 6.0061 0 7.1161 3.9526 7.1161 9.0937v10.469z" fill="#fff"/><path d="m50.504 88.727c0.53057 0.76785 1.4287 1.2731 2.4461 1.2731h34.09c1.632-1e-7 2.9591-1.2935 2.9591-2.8864 0 0-0.72916 0.78169-8.7083 1.0942-28.318 1.109-30.787 0.5191-30.787 0.5191z" fill="#006595" opacity=".4"/></svg>
